<?xml version="1.0" encoding="UTF-8" standalone="no"?><svg xmlns="http://www.w3.org/2000/svg" xmlns:xlink="http://www.w3.org/1999/xlink" contentScriptType="application/ecmascript" contentStyleType="text/css" height="1133px" preserveAspectRatio="none" style="width:1289px;height:1133px;" version="1.1" viewBox="0 0 1289 1133" width="1289px" zoomAndPan="magnify"><defs><filter height="300%" id="f1smqlbzgoz8u8" width="300%" x="-1" y="-1"><feGaussianBlur result="blurOut" stdDeviation="2.0"/><feColorMatrix in="blurOut" result="blurOut2" type="matrix" values="0 0 0 0 0 0 0 0 0 0 0 0 0 0 0 0 0 0 .4 0"/><feOffset dx="4.0" dy="4.0" in="blurOut2" result="blurOut3"/><feBlend in="SourceGraphic" in2="blurOut3" mode="normal"/></filter></defs><g><!--cluster ProcGen.cs--><polygon fill="#FFFFFF" filter="url(#f1smqlbzgoz8u8)" points="933,425,1030,425,1037,447.2969,1267,447.2969,1267,1121,933,1121,933,425" style="stroke: #000000; stroke-width: 1.5;"/><line style="stroke: #000000; stroke-width: 1.5;" x1="933" x2="1037" y1="447.2969" y2="447.2969"/><text fill="#000000" font-family="sans-serif" font-size="14" font-weight="bold" lengthAdjust="spacingAndGlyphs" textLength="91" x="937" y="439.9951">ProcGen.cs</text><!--class MapTile--><rect fill="#FEFECE" filter="url(#f1smqlbzgoz8u8)" height="112.0234" id="MapTile" style="stroke: #A80036; stroke-width: 1.5;" width="124" x="1038" y="702"/><ellipse cx="1073.25" cy="718" fill="#ADD1B2" rx="11" ry="11" style="stroke: #A80036; stroke-width: 1.0;"/><path d="M1076.2188,723.6406 Q1075.6406,723.9375 1075,724.0859 Q1074.3594,724.2344 1073.6563,724.2344 Q1071.1563,724.2344 1069.8359,722.5859 Q1068.5156,720.9375 1068.5156,717.8125 Q1068.5156,714.6875 1069.8359,713.0313 Q1071.1563,711.375 1073.6563,711.375 Q1074.3594,711.375 1075.0078,711.5313 Q1075.6563,711.6875 1076.2188,711.9844 L1076.2188,714.7031 Q1075.5938,714.125 1075,713.8516 Q1074.4063,713.5781 1073.7813,713.5781 Q1072.4375,713.5781 1071.75,714.6484 Q1071.0625,715.7188 1071.0625,717.8125 Q1071.0625,719.9063 1071.75,720.9766 Q1072.4375,722.0469 1073.7813,722.0469 Q1074.4063,722.0469 1075,721.7734 Q1075.5938,721.5 1076.2188,720.9219 L1076.2188,723.6406 Z "/><text fill="#000000" font-family="sans-serif" font-size="12" lengthAdjust="spacingAndGlyphs" textLength="47" x="1091.75" y="722.1543">MapTile</text><line style="stroke: #A80036; stroke-width: 1.5;" x1="1039" x2="1161" y1="734" y2="734"/><ellipse cx="1049" cy="745.9023" fill="none" rx="3" ry="3" style="stroke: #038048; stroke-width: 1.0;"/><text fill="#000000" font-family="sans-serif" font-size="11" lengthAdjust="spacingAndGlyphs" textLength="71" x="1058" y="748.2104">int mainPath</text><ellipse cx="1049" cy="758.707" fill="none" rx="3" ry="3" style="stroke: #038048; stroke-width: 1.0;"/><text fill="#000000" font-family="sans-serif" font-size="11" lengthAdjust="spacingAndGlyphs" textLength="97" x="1058" y="761.0151">int creationOrder</text><ellipse cx="1049" cy="771.5117" fill="none" rx="3" ry="3" style="stroke: #038048; stroke-width: 1.0;"/><text fill="#000000" font-family="sans-serif" font-size="11" lengthAdjust="spacingAndGlyphs" textLength="98" x="1058" y="773.8198">TileType TileType</text><ellipse cx="1049" cy="784.3164" fill="none" rx="3" ry="3" style="stroke: #038048; stroke-width: 1.0;"/><text fill="#000000" font-family="sans-serif" font-size="11" lengthAdjust="spacingAndGlyphs" textLength="67" x="1058" y="786.6245">int variation</text><ellipse cx="1049" cy="797.1211" fill="none" rx="3" ry="3" style="stroke: #038048; stroke-width: 1.0;"/><text fill="#000000" font-family="sans-serif" font-size="11" lengthAdjust="spacingAndGlyphs" textLength="66" x="1058" y="799.4292">Coords pos</text><line style="stroke: #A80036; stroke-width: 1.5;" x1="1039" x2="1161" y1="806.0234" y2="806.0234"/><!--class Coords--><rect fill="#FEFECE" filter="url(#f1smqlbzgoz8u8)" height="73.6094" id="Coords" style="stroke: #A80036; stroke-width: 1.5;" width="76" x="1014" y="988"/><ellipse cx="1029" cy="1004" fill="#ADD1B2" rx="11" ry="11" style="stroke: #A80036; stroke-width: 1.0;"/><path d="M1031.9688,1009.6406 Q1031.3906,1009.9375 1030.75,1010.0859 Q1030.1094,1010.2344 1029.4063,1010.2344 Q1026.9063,1010.2344 1025.5859,1008.5859 Q1024.2656,1006.9375 1024.2656,1003.8125 Q1024.2656,1000.6875 1025.5859,999.0313 Q1026.9063,997.375 1029.4063,997.375 Q1030.1094,997.375 1030.7578,997.5313 Q1031.4063,997.6875 1031.9688,997.9844 L1031.9688,1000.7031 Q1031.3438,1000.125 1030.75,999.8516 Q1030.1563,999.5781 1029.5313,999.5781 Q1028.1875,999.5781 1027.5,1000.6484 Q1026.8125,1001.7188 1026.8125,1003.8125 Q1026.8125,1005.9063 1027.5,1006.9766 Q1028.1875,1008.0469 1029.5313,1008.0469 Q1030.1563,1008.0469 1030.75,1007.7734 Q1031.3438,1007.5 1031.9688,1006.9219 L1031.9688,1009.6406 Z "/><text fill="#000000" font-family="sans-serif" font-size="12" lengthAdjust="spacingAndGlyphs" textLength="44" x="1043" y="1008.1543">Coords</text><line style="stroke: #A80036; stroke-width: 1.5;" x1="1015" x2="1089" y1="1020" y2="1020"/><ellipse cx="1025" cy="1031.9023" fill="none" rx="3" ry="3" style="stroke: #038048; stroke-width: 1.0;"/><text fill="#000000" font-family="sans-serif" font-size="11" lengthAdjust="spacingAndGlyphs" textLength="24" x="1034" y="1034.2104">int x</text><ellipse cx="1025" cy="1044.707" fill="none" rx="3" ry="3" style="stroke: #038048; stroke-width: 1.0;"/><text fill="#000000" font-family="sans-serif" font-size="11" lengthAdjust="spacingAndGlyphs" textLength="24" x="1034" y="1047.0151">int y</text><line style="stroke: #A80036; stroke-width: 1.5;" x1="1015" x2="1089" y1="1053.6094" y2="1053.6094"/><!--class TileType--><rect fill="#FEFECE" filter="url(#f1smqlbzgoz8u8)" height="176.0469" id="TileType" style="stroke: #A80036; stroke-width: 1.5;" width="82" x="1125" y="937"/><ellipse cx="1140" cy="953" fill="#EB937F" rx="11" ry="11" style="stroke: #A80036; stroke-width: 1.0;"/><path d="M1144.1094,959 L1136.3906,959 L1136.3906,946.6094 L1144.1094,946.6094 L1144.1094,948.7656 L1138.8438,948.7656 L1138.8438,951.4375 L1143.6094,951.4375 L1143.6094,953.5938 L1138.8438,953.5938 L1138.8438,956.8438 L1144.1094,956.8438 L1144.1094,959 Z "/><text fill="#000000" font-family="sans-serif" font-size="12" lengthAdjust="spacingAndGlyphs" textLength="50" x="1154" y="957.1543">TileType</text><line style="stroke: #A80036; stroke-width: 1.5;" x1="1126" x2="1206" y1="969" y2="969"/><text fill="#000000" font-family="sans-serif" font-size="11" lengthAdjust="spacingAndGlyphs" textLength="29" x="1131" y="983.2104">Entry</text><text fill="#000000" font-family="sans-serif" font-size="11" lengthAdjust="spacingAndGlyphs" textLength="20" x="1131" y="996.0151">Exit</text><text fill="#000000" font-family="sans-serif" font-size="11" lengthAdjust="spacingAndGlyphs" textLength="20" x="1131" y="1008.8198">Tile</text><text fill="#000000" font-family="sans-serif" font-size="11" lengthAdjust="spacingAndGlyphs" textLength="23" x="1131" y="1021.6245">Gap</text><text fill="#000000" font-family="sans-serif" font-size="11" lengthAdjust="spacingAndGlyphs" textLength="28" x="1131" y="1034.4292">Jump</text><text fill="#000000" font-family="sans-serif" font-size="11" lengthAdjust="spacingAndGlyphs" textLength="48" x="1131" y="1047.2339">Crumble</text><text fill="#000000" font-family="sans-serif" font-size="11" lengthAdjust="spacingAndGlyphs" textLength="35" x="1131" y="1060.0386">Turret</text><text fill="#000000" font-family="sans-serif" font-size="11" lengthAdjust="spacingAndGlyphs" textLength="27" x="1131" y="1072.8433">Door</text><text fill="#000000" font-family="sans-serif" font-size="11" lengthAdjust="spacingAndGlyphs" textLength="37" x="1131" y="1085.6479">Switch</text><text fill="#000000" font-family="sans-serif" font-size="11" lengthAdjust="spacingAndGlyphs" textLength="39" x="1131" y="1098.4526">Moving</text><line style="stroke: #A80036; stroke-width: 1.5;" x1="1126" x2="1206" y1="1105.0469" y2="1105.0469"/><!--class ProcGen--><rect fill="#FEFECE" filter="url(#f1smqlbzgoz8u8)" height="73.6094" id="ProcGen" style="stroke: #A80036; stroke-width: 1.5;" width="318" x="941" y="452"/><ellipse cx="1069.25" cy="468" fill="#ADD1B2" rx="11" ry="11" style="stroke: #A80036; stroke-width: 1.0;"/><path d="M1072.2188,473.6406 Q1071.6406,473.9375 1071,474.0859 Q1070.3594,474.2344 1069.6563,474.2344 Q1067.1563,474.2344 1065.8359,472.5859 Q1064.5156,470.9375 1064.5156,467.8125 Q1064.5156,464.6875 1065.8359,463.0313 Q1067.1563,461.375 1069.6563,461.375 Q1070.3594,461.375 1071.0078,461.5313 Q1071.6563,461.6875 1072.2188,461.9844 L1072.2188,464.7031 Q1071.5938,464.125 1071,463.8516 Q1070.4063,463.5781 1069.7813,463.5781 Q1068.4375,463.5781 1067.75,464.6484 Q1067.0625,465.7188 1067.0625,467.8125 Q1067.0625,469.9063 1067.75,470.9766 Q1068.4375,472.0469 1069.7813,472.0469 Q1070.4063,472.0469 1071,471.7734 Q1071.5938,471.5 1072.2188,470.9219 L1072.2188,473.6406 Z "/><text fill="#000000" font-family="sans-serif" font-size="12" lengthAdjust="spacingAndGlyphs" textLength="53" x="1089.75" y="472.1543">ProcGen</text><line style="stroke: #A80036; stroke-width: 1.5;" x1="942" x2="1258" y1="484" y2="484"/><ellipse cx="952" cy="495.9023" fill="none" rx="3" ry="3" style="stroke: #038048; stroke-width: 1.0;"/><text fill="#000000" font-family="sans-serif" font-size="11" lengthAdjust="spacingAndGlyphs" textLength="85" x="961" y="498.2104">MapTile[,] level</text><line style="stroke: #A80036; stroke-width: 1.5;" x1="942" x2="1258" y1="504.8047" y2="504.8047"/><ellipse cx="952" cy="516.707" fill="#84BE84" rx="3" ry="3" style="stroke: #038048; stroke-width: 1.0;"/><text fill="#000000" font-family="sans-serif" font-size="11" lengthAdjust="spacingAndGlyphs" textLength="292" x="961" y="519.0151">MapTile[,] createLevel(lvlSize, numTiles, dirChance)</text><!--class GameObject--><rect fill="#FEFECE" filter="url(#f1smqlbzgoz8u8)" height="48" id="GameObject" style="stroke: #A80036; stroke-width: 1.5;" width="108" x="786" y="8"/><ellipse cx="801" cy="24" fill="#ADD1B2" rx="11" ry="11" style="stroke: #A80036; stroke-width: 1.0;"/><path d="M803.9688,29.6406 Q803.3906,29.9375 802.75,30.0859 Q802.1094,30.2344 801.4063,30.2344 Q798.9063,30.2344 797.5859,28.5859 Q796.2656,26.9375 796.2656,23.8125 Q796.2656,20.6875 797.5859,19.0313 Q798.9063,17.375 801.4063,17.375 Q802.1094,17.375 802.7578,17.5313 Q803.4063,17.6875 803.9688,17.9844 L803.9688,20.7031 Q803.3438,20.125 802.75,19.8516 Q802.1563,19.5781 801.5313,19.5781 Q800.1875,19.5781 799.5,20.6484 Q798.8125,21.7188 798.8125,23.8125 Q798.8125,25.9063 799.5,26.9766 Q800.1875,28.0469 801.5313,28.0469 Q802.1563,28.0469 802.75,27.7734 Q803.3438,27.5 803.9688,26.9219 L803.9688,29.6406 Z "/><text fill="#000000" font-family="sans-serif" font-size="12" lengthAdjust="spacingAndGlyphs" textLength="76" x="815" y="28.1543">GameObject</text><line style="stroke: #A80036; stroke-width: 1.5;" x1="787" x2="893" y1="40" y2="40"/><line style="stroke: #A80036; stroke-width: 1.5;" x1="787" x2="893" y1="48" y2="48"/><!--class MonoBehaviour--><rect fill="#FEFECE" filter="url(#f1smqlbzgoz8u8)" height="79.5469" id="MonoBehaviour" style="stroke: #A80036; stroke-width: 1.5;" width="150" x="765" y="133"/><ellipse cx="780" cy="151.9688" fill="#A9DCDF" rx="11" ry="11" style="stroke: #A80036; stroke-width: 1.0;"/><path d="M780.1094,147.3125 L778.9531,152.3906 L781.2813,152.3906 L780.1094,147.3125 Z M778.625,145.0781 L781.6094,145.0781 L784.9688,157.4688 L782.5156,157.4688 L781.75,154.4063 L778.4688,154.4063 L777.7188,157.4688 L775.2813,157.4688 L778.625,145.0781 Z "/><text fill="#000000" font-family="sans-serif" font-size="12" font-style="italic" lengthAdjust="spacingAndGlyphs" textLength="122" x="792" y="149.1387">«Provided by Unity»</text><text fill="#000000" font-family="sans-serif" font-size="12" font-style="italic" lengthAdjust="spacingAndGlyphs" textLength="96" x="805" y="163.1074">MonoBehaviour</text><line style="stroke: #A80036; stroke-width: 1.5;" x1="766" x2="914" y1="170.9375" y2="170.9375"/><line style="stroke: #A80036; stroke-width: 1.5;" x1="766" x2="914" y1="178.9375" y2="178.9375"/><ellipse cx="776" cy="190.8398" fill="#84BE84" rx="3" ry="3" style="stroke: #038048; stroke-width: 1.0;"/><text fill="#000000" font-family="sans-serif" font-size="11" lengthAdjust="spacingAndGlyphs" textLength="36" x="785" y="193.1479">Start()</text><ellipse cx="776" cy="203.6445" fill="#84BE84" rx="3" ry="3" style="stroke: #038048; stroke-width: 1.0;"/><text fill="#000000" font-family="sans-serif" font-size="11" lengthAdjust="spacingAndGlyphs" textLength="48" x="785" y="205.9526">Update()</text><path d="M438,137.5 L438,208.0313 A0,0 0 0 0 438,208.0313 L730,208.0313 A0,0 0 0 0 730,208.0313 L730,177 L764.7188,173 L730,169 L730,147.5 L720,137.5 L438,137.5 A0,0 0 0 0 438,137.5 " fill="#FBFB77" filter="url(#f1smqlbzgoz8u8)" style="stroke: #A80036; stroke-width: 1.0;"/><path d="M720,137.5 L720,147.5 L730,147.5 L720,137.5 " fill="#FBFB77" style="stroke: #A80036; stroke-width: 1.0;"/><text fill="#000000" font-family="sans-serif" font-size="13" lengthAdjust="spacingAndGlyphs" textLength="228" x="444" y="154.5669">Base class that every script in Unity</text><text fill="#000000" font-family="sans-serif" font-size="13" lengthAdjust="spacingAndGlyphs" textLength="253" x="444" y="169.6997">derives from. Classes which derive from</text><text fill="#000000" font-family="sans-serif" font-size="13" lengthAdjust="spacingAndGlyphs" textLength="271" x="444" y="184.8325">this exist as components of game objects,</text><text fill="#000000" font-family="sans-serif" font-size="13" lengthAdjust="spacingAndGlyphs" textLength="226" x="444" y="199.9653">and are owned by the game object.</text><!--class GameController--><rect fill="#FEFECE" filter="url(#f1smqlbzgoz8u8)" height="60.8047" id="GameController" style="stroke: #A80036; stroke-width: 1.5;" width="129" x="538.5" y="299.5"/><ellipse cx="553.5" cy="315.5" fill="#ADD1B2" rx="11" ry="11" style="stroke: #A80036; stroke-width: 1.0;"/><path d="M556.4688,321.1406 Q555.8906,321.4375 555.25,321.5859 Q554.6094,321.7344 553.9063,321.7344 Q551.4063,321.7344 550.0859,320.0859 Q548.7656,318.4375 548.7656,315.3125 Q548.7656,312.1875 550.0859,310.5313 Q551.4063,308.875 553.9063,308.875 Q554.6094,308.875 555.2578,309.0313 Q555.9063,309.1875 556.4688,309.4844 L556.4688,312.2031 Q555.8438,311.625 555.25,311.3516 Q554.6563,311.0781 554.0313,311.0781 Q552.6875,311.0781 552,312.1484 Q551.3125,313.2188 551.3125,315.3125 Q551.3125,317.4063 552,318.4766 Q552.6875,319.5469 554.0313,319.5469 Q554.6563,319.5469 555.25,319.2734 Q555.8438,319 556.4688,318.4219 L556.4688,321.1406 Z "/><text fill="#000000" font-family="sans-serif" font-size="12" lengthAdjust="spacingAndGlyphs" textLength="97" x="567.5" y="319.6543">GameController</text><line style="stroke: #A80036; stroke-width: 1.5;" x1="539.5" x2="666.5" y1="331.5" y2="331.5"/><line style="stroke: #A80036; stroke-width: 1.5;" x1="539.5" x2="666.5" y1="339.5" y2="339.5"/><ellipse cx="549.5" cy="351.4023" fill="#84BE84" rx="3" ry="3" style="stroke: #038048; stroke-width: 1.0;"/><text fill="#000000" font-family="sans-serif" font-size="11" lengthAdjust="spacingAndGlyphs" textLength="36" x="558.5" y="353.7104">Start()</text><!--class MapData--><rect fill="#FEFECE" filter="url(#f1smqlbzgoz8u8)" height="48" id="MapData" style="stroke: #A80036; stroke-width: 1.5;" width="88" x="471" y="465"/><ellipse cx="486" cy="481" fill="#ADD1B2" rx="11" ry="11" style="stroke: #A80036; stroke-width: 1.0;"/><path d="M488.9688,486.6406 Q488.3906,486.9375 487.75,487.0859 Q487.1094,487.2344 486.4063,487.2344 Q483.9063,487.2344 482.5859,485.5859 Q481.2656,483.9375 481.2656,480.8125 Q481.2656,477.6875 482.5859,476.0313 Q483.9063,474.375 486.4063,474.375 Q487.1094,474.375 487.7578,474.5313 Q488.4063,474.6875 488.9688,474.9844 L488.9688,477.7031 Q488.3438,477.125 487.75,476.8516 Q487.1563,476.5781 486.5313,476.5781 Q485.1875,476.5781 484.5,477.6484 Q483.8125,478.7188 483.8125,480.8125 Q483.8125,482.9063 484.5,483.9766 Q485.1875,485.0469 486.5313,485.0469 Q487.1563,485.0469 487.75,484.7734 Q488.3438,484.5 488.9688,483.9219 L488.9688,486.6406 Z "/><text fill="#000000" font-family="sans-serif" font-size="12" lengthAdjust="spacingAndGlyphs" textLength="56" x="500" y="485.1543">MapData</text><line style="stroke: #A80036; stroke-width: 1.5;" x1="472" x2="558" y1="497" y2="497"/><line style="stroke: #A80036; stroke-width: 1.5;" x1="472" x2="558" y1="505" y2="505"/><!--class TileBase--><rect fill="#FEFECE" filter="url(#f1smqlbzgoz8u8)" height="86.4141" id="TileBase" style="stroke: #A80036; stroke-width: 1.5;" width="108" x="703" y="287"/><ellipse cx="728.8" cy="303" fill="#ADD1B2" rx="11" ry="11" style="stroke: #A80036; stroke-width: 1.0;"/><path d="M731.7688,308.6406 Q731.1906,308.9375 730.55,309.0859 Q729.9094,309.2344 729.2063,309.2344 Q726.7063,309.2344 725.3859,307.5859 Q724.0656,305.9375 724.0656,302.8125 Q724.0656,299.6875 725.3859,298.0313 Q726.7063,296.375 729.2063,296.375 Q729.9094,296.375 730.5578,296.5313 Q731.2063,296.6875 731.7688,296.9844 L731.7688,299.7031 Q731.1438,299.125 730.55,298.8516 Q729.9563,298.5781 729.3313,298.5781 Q727.9875,298.5781 727.3,299.6484 Q726.6125,300.7188 726.6125,302.8125 Q726.6125,304.9063 727.3,305.9766 Q727.9875,307.0469 729.3313,307.0469 Q729.9563,307.0469 730.55,306.7734 Q731.1438,306.5 731.7688,305.9219 L731.7688,308.6406 Z "/><text fill="#000000" font-family="sans-serif" font-size="12" lengthAdjust="spacingAndGlyphs" textLength="52" x="745.2" y="307.1543">TileBase</text><line style="stroke: #A80036; stroke-width: 1.5;" x1="704" x2="810" y1="319" y2="319"/><line style="stroke: #A80036; stroke-width: 1.5;" x1="704" x2="810" y1="327" y2="327"/><ellipse cx="714" cy="338.9023" fill="#84BE84" rx="3" ry="3" style="stroke: #038048; stroke-width: 1.0;"/><text fill="#000000" font-family="sans-serif" font-size="11" lengthAdjust="spacingAndGlyphs" textLength="36" x="723" y="341.2104">Start()</text><ellipse cx="714" cy="351.707" fill="#84BE84" rx="3" ry="3" style="stroke: #038048; stroke-width: 1.0;"/><text fill="#000000" font-family="sans-serif" font-size="11" lengthAdjust="spacingAndGlyphs" textLength="81" x="723" y="354.0151">TransitionOn()</text><ellipse cx="714" cy="364.5117" fill="#84BE84" rx="3" ry="3" style="stroke: #038048; stroke-width: 1.0;"/><text fill="#000000" font-family="sans-serif" font-size="11" lengthAdjust="spacingAndGlyphs" textLength="82" x="723" y="366.8198">TransitionOff()</text><!--class CharacterController--><rect fill="#FEFECE" filter="url(#f1smqlbzgoz8u8)" height="60.8047" id="CharacterController" style="stroke: #A80036; stroke-width: 1.5;" width="155" x="846.5" y="299.5"/><ellipse cx="861.5" cy="315.5" fill="#ADD1B2" rx="11" ry="11" style="stroke: #A80036; stroke-width: 1.0;"/><path d="M864.4688,321.1406 Q863.8906,321.4375 863.25,321.5859 Q862.6094,321.7344 861.9063,321.7344 Q859.4063,321.7344 858.0859,320.0859 Q856.7656,318.4375 856.7656,315.3125 Q856.7656,312.1875 858.0859,310.5313 Q859.4063,308.875 861.9063,308.875 Q862.6094,308.875 863.2578,309.0313 Q863.9063,309.1875 864.4688,309.4844 L864.4688,312.2031 Q863.8438,311.625 863.25,311.3516 Q862.6563,311.0781 862.0313,311.0781 Q860.6875,311.0781 860,312.1484 Q859.3125,313.2188 859.3125,315.3125 Q859.3125,317.4063 860,318.4766 Q860.6875,319.5469 862.0313,319.5469 Q862.6563,319.5469 863.25,319.2734 Q863.8438,319 864.4688,318.4219 L864.4688,321.1406 Z "/><text fill="#000000" font-family="sans-serif" font-size="12" lengthAdjust="spacingAndGlyphs" textLength="123" x="875.5" y="319.6543">CharacterController</text><line style="stroke: #A80036; stroke-width: 1.5;" x1="847.5" x2="1000.5" y1="331.5" y2="331.5"/><line style="stroke: #A80036; stroke-width: 1.5;" x1="847.5" x2="1000.5" y1="339.5" y2="339.5"/><ellipse cx="857.5" cy="351.4023" fill="#84BE84" rx="3" ry="3" style="stroke: #038048; stroke-width: 1.0;"/><text fill="#000000" font-family="sans-serif" font-size="11" lengthAdjust="spacingAndGlyphs" textLength="63" x="866.5" y="353.7104">void Start()</text><!--class CharacterMovement--><rect fill="#FEFECE" filter="url(#f1smqlbzgoz8u8)" height="73.6094" id="CharacterMovement" style="stroke: #A80036; stroke-width: 1.5;" width="158" x="6" y="293"/><ellipse cx="21" cy="309" fill="#ADD1B2" rx="11" ry="11" style="stroke: #A80036; stroke-width: 1.0;"/><path d="M23.9688,314.6406 Q23.3906,314.9375 22.75,315.0859 Q22.1094,315.2344 21.4063,315.2344 Q18.9063,315.2344 17.5859,313.5859 Q16.2656,311.9375 16.2656,308.8125 Q16.2656,305.6875 17.5859,304.0313 Q18.9063,302.375 21.4063,302.375 Q22.1094,302.375 22.7578,302.5313 Q23.4063,302.6875 23.9688,302.9844 L23.9688,305.7031 Q23.3438,305.125 22.75,304.8516 Q22.1563,304.5781 21.5313,304.5781 Q20.1875,304.5781 19.5,305.6484 Q18.8125,306.7188 18.8125,308.8125 Q18.8125,310.9063 19.5,311.9766 Q20.1875,313.0469 21.5313,313.0469 Q22.1563,313.0469 22.75,312.7734 Q23.3438,312.5 23.9688,311.9219 L23.9688,314.6406 Z "/><text fill="#000000" font-family="sans-serif" font-size="12" lengthAdjust="spacingAndGlyphs" textLength="126" x="35" y="313.1543">CharacterMovement</text><line style="stroke: #A80036; stroke-width: 1.5;" x1="7" x2="163" y1="325" y2="325"/><line style="stroke: #A80036; stroke-width: 1.5;" x1="7" x2="163" y1="333" y2="333"/><ellipse cx="17" cy="344.9023" fill="#84BE84" rx="3" ry="3" style="stroke: #038048; stroke-width: 1.0;"/><text fill="#000000" font-family="sans-serif" font-size="11" lengthAdjust="spacingAndGlyphs" textLength="63" x="26" y="347.2104">void Start()</text><ellipse cx="17" cy="357.707" fill="#84BE84" rx="3" ry="3" style="stroke: #038048; stroke-width: 1.0;"/><text fill="#000000" font-family="sans-serif" font-size="11" lengthAdjust="spacingAndGlyphs" textLength="75" x="26" y="360.0151">void Update()</text><path d="M199,279.5 L199,326 L164.2285,330 L199,334 L199,380.2969 A0,0 0 0 0 199,380.2969 L503,380.2969 A0,0 0 0 0 503,380.2969 L503,289.5 L493,279.5 L199,279.5 A0,0 0 0 0 199,279.5 " fill="#FBFB77" filter="url(#f1smqlbzgoz8u8)" style="stroke: #A80036; stroke-width: 1.0;"/><path d="M493,279.5 L493,289.5 L503,289.5 L493,279.5 " fill="#FBFB77" style="stroke: #A80036; stroke-width: 1.0;"/><text fill="#000000" font-family="sans-serif" font-size="13" lengthAdjust="spacingAndGlyphs" textLength="283" x="205" y="296.5669">Notes that CharacterMovement implements</text><text fill="#000000" font-family="sans-serif" font-size="13" lengthAdjust="spacingAndGlyphs" textLength="206" x="205" y="311.6997">the Update() method in order to</text><text fill="#000000" font-family="sans-serif" font-size="13" lengthAdjust="spacingAndGlyphs" textLength="196" x="205" y="326.8325">evaluate the character physics</text><text fill="#000000" font-family="sans-serif" font-size="13" lengthAdjust="spacingAndGlyphs" textLength="236" x="205" y="341.9653">and character control loop each time</text><text fill="#000000" font-family="sans-serif" font-size="13" lengthAdjust="spacingAndGlyphs" textLength="277" x="205" y="357.0981">the Unity game engine performs an update</text><text fill="#000000" font-family="sans-serif" font-size="13" lengthAdjust="spacingAndGlyphs" textLength="112" x="205" y="372.231">in the game loop.</text><!--class MapTransitioner--><rect fill="#FEFECE" filter="url(#f1smqlbzgoz8u8)" height="73.6094" id="MapTransitioner" style="stroke: #A80036; stroke-width: 1.5;" width="191" x="594.5" y="452"/><ellipse cx="635.6" cy="468" fill="#ADD1B2" rx="11" ry="11" style="stroke: #A80036; stroke-width: 1.0;"/><path d="M638.5688,473.6406 Q637.9906,473.9375 637.35,474.0859 Q636.7094,474.2344 636.0063,474.2344 Q633.5063,474.2344 632.1859,472.5859 Q630.8656,470.9375 630.8656,467.8125 Q630.8656,464.6875 632.1859,463.0313 Q633.5063,461.375 636.0063,461.375 Q636.7094,461.375 637.3578,461.5313 Q638.0063,461.6875 638.5688,461.9844 L638.5688,464.7031 Q637.9438,464.125 637.35,463.8516 Q636.7563,463.5781 636.1313,463.5781 Q634.7875,463.5781 634.1,464.6484 Q633.4125,465.7188 633.4125,467.8125 Q633.4125,469.9063 634.1,470.9766 Q634.7875,472.0469 636.1313,472.0469 Q636.7563,472.0469 637.35,471.7734 Q637.9438,471.5 638.5688,470.9219 L638.5688,473.6406 Z "/><text fill="#000000" font-family="sans-serif" font-size="12" lengthAdjust="spacingAndGlyphs" textLength="101" x="655.4" y="472.1543">MapTransitioner</text><line style="stroke: #A80036; stroke-width: 1.5;" x1="595.5" x2="784.5" y1="484" y2="484"/><ellipse cx="605.5" cy="495.9023" fill="none" rx="3" ry="3" style="stroke: #038048; stroke-width: 1.0;"/><text fill="#000000" font-family="sans-serif" font-size="11" lengthAdjust="spacingAndGlyphs" textLength="130" x="614.5" y="498.2104">event OnLevelAvailable</text><line style="stroke: #A80036; stroke-width: 1.5;" x1="595.5" x2="784.5" y1="504.8047" y2="504.8047"/><ellipse cx="605.5" cy="516.707" fill="#84BE84" rx="3" ry="3" style="stroke: #038048; stroke-width: 1.0;"/><text fill="#000000" font-family="sans-serif" font-size="11" lengthAdjust="spacingAndGlyphs" textLength="165" x="614.5" y="519.0151">StartTransitioning(MapTile[,])</text><!--class PauseMenu--><rect fill="#FEFECE" filter="url(#f1smqlbzgoz8u8)" height="112.0234" id="PauseMenu" style="stroke: #A80036; stroke-width: 1.5;" width="118" x="1037" y="274"/><ellipse cx="1057.85" cy="290" fill="#ADD1B2" rx="11" ry="11" style="stroke: #A80036; stroke-width: 1.0;"/><path d="M1060.8188,295.6406 Q1060.2406,295.9375 1059.6,296.0859 Q1058.9594,296.2344 1058.2563,296.2344 Q1055.7563,296.2344 1054.4359,294.5859 Q1053.1156,292.9375 1053.1156,289.8125 Q1053.1156,286.6875 1054.4359,285.0313 Q1055.7563,283.375 1058.2563,283.375 Q1058.9594,283.375 1059.6078,283.5313 Q1060.2563,283.6875 1060.8188,283.9844 L1060.8188,286.7031 Q1060.1938,286.125 1059.6,285.8516 Q1059.0063,285.5781 1058.3813,285.5781 Q1057.0375,285.5781 1056.35,286.6484 Q1055.6625,287.7188 1055.6625,289.8125 Q1055.6625,291.9063 1056.35,292.9766 Q1057.0375,294.0469 1058.3813,294.0469 Q1059.0063,294.0469 1059.6,293.7734 Q1060.1938,293.5 1060.8188,292.9219 L1060.8188,295.6406 Z "/><text fill="#000000" font-family="sans-serif" font-size="12" lengthAdjust="spacingAndGlyphs" textLength="73" x="1073.15" y="294.1543">PauseMenu</text><line style="stroke: #A80036; stroke-width: 1.5;" x1="1038" x2="1154" y1="306" y2="306"/><line style="stroke: #A80036; stroke-width: 1.5;" x1="1038" x2="1154" y1="314" y2="314"/><ellipse cx="1048" cy="325.9023" fill="#84BE84" rx="3" ry="3" style="stroke: #038048; stroke-width: 1.0;"/><text fill="#000000" font-family="sans-serif" font-size="11" lengthAdjust="spacingAndGlyphs" textLength="75" x="1057" y="328.2104">void Update()</text><ellipse cx="1048" cy="338.707" fill="#84BE84" rx="3" ry="3" style="stroke: #038048; stroke-width: 1.0;"/><text fill="#000000" font-family="sans-serif" font-size="11" lengthAdjust="spacingAndGlyphs" textLength="92" x="1057" y="341.0151">void QuitGame()</text><ellipse cx="1048" cy="351.5117" fill="#84BE84" rx="3" ry="3" style="stroke: #038048; stroke-width: 1.0;"/><text fill="#000000" font-family="sans-serif" font-size="11" lengthAdjust="spacingAndGlyphs" textLength="70" x="1057" y="353.8198">void Pause()</text><ellipse cx="1048" cy="364.3164" fill="#84BE84" rx="3" ry="3" style="stroke: #038048; stroke-width: 1.0;"/><text fill="#000000" font-family="sans-serif" font-size="11" lengthAdjust="spacingAndGlyphs" textLength="92" x="1057" y="366.6245">void LoadMenu()</text><ellipse cx="1048" cy="377.1211" fill="#84BE84" rx="3" ry="3" style="stroke: #038048; stroke-width: 1.0;"/><text fill="#000000" font-family="sans-serif" font-size="11" lengthAdjust="spacingAndGlyphs" textLength="81" x="1057" y="379.4292">void Resume()</text><!--link GameObject to MonoBehaviour--><path d="M840,69.2787 C840,88.8465 840,112.8409 840,132.8213 " fill="none" id="GameObject-MonoBehaviour" style="stroke: #A80036; stroke-width: 1.0;"/><polygon fill="#FFFFFF" points="840,56.2388,836,62.2388,840,68.2388,844,62.2388,840,56.2388" style="stroke: #A80036; stroke-width: 1.0;"/><text fill="#000000" font-family="sans-serif" font-size="13" lengthAdjust="spacingAndGlyphs" textLength="205" x="841" y="99.0669">Attached as a script component</text><!--link MonoBehaviour to CharacterController--><path d="M870.9989,230.9384 C883.4346,254.1813 897.2545,280.0114 907.6638,299.4669 " fill="none" id="MonoBehaviour-CharacterController" style="stroke: #A80036; stroke-width: 1.0;"/><polygon fill="none" points="864.6771,233.9609,861.4141,213.024,877.0213,227.3563,864.6771,233.9609" style="stroke: #A80036; stroke-width: 1.0;"/><!--link MonoBehaviour to CharacterMovement--><path d="M745.1342,212.578 C498.0702,273.1804 415.2467,196.9662 181,274 C166.8864,278.6414 152.5779,285.5569 139.4687,292.9588 " fill="none" id="MonoBehaviour-CharacterMovement" style="stroke: #A80036; stroke-width: 1.0;"/><polygon fill="none" points="743.6734,205.7264,764.7838,207.5578,747.139,219.2907,743.6734,205.7264" style="stroke: #A80036; stroke-width: 1.0;"/><!--link MonoBehaviour to TileBase--><path d="M809.4392,230.8078 C799.6579,249.3098 789.0035,269.4632 779.8689,286.742 " fill="none" id="MonoBehaviour-TileBase" style="stroke: #A80036; stroke-width: 1.0;"/><polygon fill="none" points="803.3049,227.4336,818.8408,213.024,815.6818,233.9768,803.3049,227.4336" style="stroke: #A80036; stroke-width: 1.0;"/><!--link MonoBehaviour to GameController--><path d="M760.7517,224.1687 C736.3809,240.0305 709.5207,257.6408 685,274 C672.8105,282.1323 659.6755,291.038 647.5667,299.3069 " fill="none" id="MonoBehaviour-GameController" style="stroke: #A80036; stroke-width: 1.0;"/><polygon fill="none" points="756.9911,218.2643,777.576,213.2381,764.6184,230.0042,756.9911,218.2643" style="stroke: #A80036; stroke-width: 1.0;"/><!--link GameController to MapData--><path d="M579.5923,372.2934 C563.2577,401.8071 542.0341,440.1542 528.4611,464.6782 " fill="none" id="GameController-MapData" style="stroke: #A80036; stroke-width: 1.0;"/><polygon fill="#A80036" points="586.0327,360.6568,579.6275,363.9694,580.2218,371.156,586.627,367.8434,586.0327,360.6568" style="stroke: #A80036; stroke-width: 1.0;"/><!--link MapTile to Coords--><path d="M1087.5481,827.2639 C1078.3434,878.4646 1066.1634,946.2164 1058.7148,987.6492 " fill="none" id="MapTile-Coords" style="stroke: #A80036; stroke-width: 1.0;"/><polygon fill="#A80036" points="1089.8791,814.2976,1084.8805,819.4951,1087.7558,826.1082,1092.7543,820.9107,1089.8791,814.2976" style="stroke: #A80036; stroke-width: 1.0;"/><!--link MapTile to TileType--><path d="M1117.1141,827.2343 C1125.3943,860.7314 1135.4269,901.318 1144.2435,936.985 " fill="none" id="MapTile-TileType" style="stroke: #A80036; stroke-width: 1.0;"/><polygon fill="#A80036" points="1113.9163,814.2976,1111.473,821.0822,1116.7959,825.947,1119.2392,819.1624,1113.9163,814.2976" style="stroke: #A80036; stroke-width: 1.0;"/><!--link ProcGen to MapTile--><path d="M1100,539.4088 C1100,585.6099 1100,653.9172 1100,701.8464 " fill="none" id="ProcGen-MapTile" style="stroke: #A80036; stroke-width: 1.0;"/><polygon fill="#A80036" points="1100,526.1209,1096,532.1209,1100,538.1209,1104,532.1209,1100,526.1209" style="stroke: #A80036; stroke-width: 1.0;"/><path d="M1105,592 L1105,632 L1236,632 L1236,602 L1226,592 L1105,592 " fill="#FBFB77" filter="url(#f1smqlbzgoz8u8)" style="stroke: #A80036; stroke-width: 1.0;"/><path d="M1226,592 L1226,602 L1236,602 L1226,592 " fill="#FBFB77" style="stroke: #A80036; stroke-width: 1.0;"/><text fill="#000000" font-family="sans-serif" font-size="13" lengthAdjust="spacingAndGlyphs" textLength="110" x="1111" y="609.0669">Tiles contained in</text><text fill="#000000" font-family="sans-serif" font-size="13" lengthAdjust="spacingAndGlyphs" textLength="69" x="1111" y="624.1997">in the level</text><text fill="#000000" font-family="sans-serif" font-size="13" lengthAdjust="spacingAndGlyphs" textLength="8" x="1091.3375" y="545.6215">1</text><text fill="#000000" font-family="sans-serif" font-size="13" lengthAdjust="spacingAndGlyphs" textLength="36" x="1061.6938" y="690.7647">many</text><!--link MonoBehaviour to ProcGen--><path d="M935.0815,188.9379 C1023.0525,205.8517 1144.4113,235.4542 1173,274 C1202.6534,313.9813 1188.1037,338.569 1173,386 C1165.3521,410.017 1149.8442,433.2414 1135.0812,451.5387 " fill="none" id="MonoBehaviour-ProcGen" style="stroke: #A80036; stroke-width: 1.0;"/><polygon fill="none" points="933.5638,195.7755,915.1914,185.2181,936.1374,182.0141,933.5638,195.7755" style="stroke: #A80036; stroke-width: 1.0;"/><!--link GameController to ProcGen--><path d="M652.6235,367.9822 C662.9408,374.6861 674.0243,381.0824 685,386 C730.8553,406.5452 844.2632,434.1642 940.9561,455.6304 " fill="none" id="GameController-ProcGen" style="stroke: #A80036; stroke-width: 1.0;"/><polygon fill="#FFFFFF" points="641.7701,360.6426,644.4995,367.3172,651.7104,367.365,648.981,360.6903,641.7701,360.6426" style="stroke: #A80036; stroke-width: 1.0;"/><!--link GameController to MapTransitioner--><path d="M626.1109,372.2372 C639.6402,396.963 656.5699,427.9037 669.6024,451.7216 " fill="none" id="GameController-MapTransitioner" style="stroke: #A80036; stroke-width: 1.0;"/><polygon fill="#A80036" points="619.7745,360.6568,619.1455,367.8404,625.5346,371.184,626.1636,364.0003,619.7745,360.6568" style="stroke: #A80036; stroke-width: 1.0;"/><!--link MonoBehaviour to PauseMenu--><path d="M932.7338,222.6541 C960.8435,238.415 991.5384,256.3493 1019,274 C1024.8401,277.7537 1030.8365,281.783 1036.7807,285.8965 " fill="none" id="MonoBehaviour-PauseMenu" style="stroke: #A80036; stroke-width: 1.0;"/><polygon fill="none" points="929.2422,228.7221,915.158,212.8905,936.0408,216.4836,929.2422,228.7221" style="stroke: #A80036; stroke-width: 1.0;"/><!--
@startuml class_diagram

class GameObject

GameObject o- - MonoBehaviour : Attached as a script component

class MonoBehaviour

note left of MonoBehaviour
Base class that every script in Unity 
derives from. Classes which derive from
this exist as components of game objects,
and are owned by the game object.
end note

abstract class MonoBehaviour <<Provided by Unity>> {
    +Start()
    +Update()
}

class GameController {
    +Start()
}

class MapData

class TileBase {
    +Start()
    +TransitionOn()
    +TransitionOff()
}

class CharacterController {
    +void Start()

}

class CharacterMovement {
    +void Start()
    +void Update()
}

note right of CharacterMovement
Notes that CharacterMovement implements
the Update() method in order to 
evaluate the character physics
and character control loop each time 
the Unity game engine performs an update 
in the game loop.
endnote

MonoBehaviour <|- - CharacterController
MonoBehaviour <|- - CharacterMovement
MonoBehaviour <|- - TileBase
MonoBehaviour <|- - GameController

GameController *- - MapData

package "ProcGen.cs" {
    class MapTile {
        +int mainPath
        +int creationOrder
        +TileType TileType
        +int variation
        +Coords pos
    }

    class Coords {
        +int x
        +int y
    }

    MapTile *- - Coords
    
    enum TileType {
        Entry
        Exit
        Tile
        Gap
        Jump
        Crumble
        Turret
        Door
        Switch
        Moving
    }

    MapTile *- - TileType
    
    class ProcGen {
        +MapTile[,] level
        +MapTile[,] createLevel(lvlSize, numTiles, dirChance)
    }

    ProcGen "1" *- - "many" MapTile
    note left on link
    Tiles contained in
    in the level
    endnote

    MonoBehaviour <|- - ProcGen
}

GameController o- - ProcGen

class MapTransitioner {
    +event OnLevelAvailable
    +StartTransitioning(MapTile[,])
}

GameController *- - MapTransitioner

class PauseMenu {
    +void Update()
    +void QuitGame()
    +void Pause()
    +void LoadMenu()
    +void Resume()
}

MonoBehaviour <|- - PauseMenu

@enduml

PlantUML version 1.2018.05(Sun May 06 06:00:17 AEST 2018)
(GPL source distribution)
Java Runtime: OpenJDK Runtime Environment
JVM: OpenJDK 64-Bit Server VM
Java Version: 1.8.0_181-b13
Operating System: Linux
OS Version: 4.18.8-arch1-1-ARCH
Default Encoding: UTF-8
Language: en
Country: US
--></g></svg>